# xmcd
# 
# Track frame offsets:
#     182
#     14720
#     32717
#     48175
#     61270
#     76700
#     97157
#     109050
#     125217
#     141642
#     155235
#     173340
# 
# Disc length: 2629
# 
# Revision: 11
# Processed by: cddbd v1.5.2PL0 Copyright (c) Steve Scherf et al.
# Submitted via: fre:ac v1.0.31
# 
DISCID=a50a430c
DTITLE=James Taylor - Greatest Hits
DYEAR=1976
DGENRE=Rock/Pop
TTITLE0=Something In The Way She Moves
TTITLE1=Carolina In My Mind
TTITLE2=Fire And Rain
TTITLE3=Sweet Baby James
TTITLE4=Country Road
TTITLE5=You've Got A Friend
TTITLE6=Don't Let Me Be Lonely Tonight
TTITLE7=Walking Man
TTITLE8=How Sweet It Is (To Be Loved By You)
TTITLE9=Mexico
TTITLE10=Shower The People
TTITLE11=Steamroller
EXTD=
EXTT0=
EXTT1=
EXTT2=
EXTT3=
EXTT4=
EXTT5=
EXTT6=
EXTT7=
EXTT8=
EXTT9=
EXTT10=
EXTT11=
PLAYORDER=
